<svg xmlns="http://www.w3.org/2000/svg" id="svg18" version="1.1" viewBox="0 0 860 1159"><defs id="defs1"><style id="style1">.cls-1{fill:#010101}.cls-2{fill:#58a0bd}.cls-3{fill:#ec9036}.cls-5{font-size:200px;fill:#1d1d1b;font-family:Gotham-LightItalic,Gotham;font-weight:300;font-style:italic}.cls-6{fill:#f39200} </style></defs><g id="Ebene_5" data-name="Ebene 5"><path id="path1" d="M476 599c-4-8-5-17-7-25a279 279 0 0 1-3-36 184 184 0 0 1 2-30l-74 21c21 25 33 38 32 100l50-30Z" class="cls-1" transform="translate(-144 -19)"/></g><g id="Layer_1" data-name="Layer 1"><path id="path2" d="M5 5h42q9 0 17 2 8 3 13 7a31 31 0 0 1 9 11q3 6 3 15t-4 16a33 33 0 0 1-9 11q-6 5-14 7a62 62 0 0 1-17 2H14v43H5Zm40 64q8 0 15-2 6-2 11-6a26 26 0 0 0 7-9q3-5 3-11v-1q0-7-3-12a24 24 0 0 0-7-8q-5-4-11-6l-14-1H14v56Z" class="cls-2" style="stroke-width:.257541"/><path id="path3" d="M122 145a36 36 0 0 1-8-1 51 51 0 0 1-8-3l3-7a29 29 0 0 0 6 3h8a18 18 0 0 0 6-1 15 15 0 0 0 5-3 31 31 0 0 0 5-6 71 71 0 0 0 4-9l-39-82h9l34 74 30-74h9l-36 85q-5 13-12 19-7 5-16 5z" class="cls-2" style="stroke-width:.257541"/><path id="path4" d="M208 8h38q13 0 24 4 11 5 19 12a53 53 0 0 1 13 18q4 10 4 22v1q0 12-4 22a53 53 0 0 1-13 18q-8 8-19 12-11 5-24 5h-38Zm38 106q12 0 21-4 10-4 16-10a46 46 0 0 0 11-16q3-9 3-19a50 50 0 0 0-3-19 47 47 0 0 0-11-16q-6-7-16-10-9-4-21-4h-30v98z" class="cls-3" style="stroke-width:.257541"/><path id="path5" d="M359 123a42 42 0 0 1-12-1 33 33 0 0 1-10-5 26 26 0 0 1-8-8q-3-5-3-11v-1q0-6 3-11a25 25 0 0 1 8-9q4-3 11-5t15-2l15 1a114 114 0 0 1 12 3v-4q0-12-7-19-7-6-20-6-8 0-14 2a69 69 0 0 0-12 5l-3-7a85 85 0 0 1 14-6l15-1q18 0 27 9 8 8 8 23v52h-8v-14a41 41 0 0 1-5 5 35 35 0 0 1-7 6 40 40 0 0 1-9 3 40 40 0 0 1-10 1zm0-7a39 39 0 0 0 12-2 33 33 0 0 0 10-5 25 25 0 0 0 7-8 21 21 0 0 0 2-10V81l-12-2q-7-2-16-2-13 0-20 6-7 5-7 14l2 8a18 18 0 0 0 5 6 25 25 0 0 0 8 4 32 32 0 0 0 9 1z" class="cls-3" style="stroke-width:.257541"/><path id="path6" d="M454 123a31 31 0 0 1-9-1 19 19 0 0 1-12-12q-2-4-2-10V46h-12v-7h12V12h8v27h29v7h-29v53q0 9 5 13 4 3 12 3a27 27 0 0 0 6 0 37 37 0 0 0 6-2v7a35 35 0 0 1-6 2 32 32 0 0 1-8 1z" class="cls-3" style="stroke-width:.257541"/><path id="path7" d="M517 123a42 42 0 0 1-11-1 33 33 0 0 1-11-5 26 26 0 0 1-7-8q-3-5-3-11v-1q0-6 3-11a25 25 0 0 1 7-9l12-5q6-2 14-2l16 1a114 114 0 0 1 12 3v-4q0-12-7-19-8-6-20-6-8 0-14 2a69 69 0 0 0-13 5l-2-7a85 85 0 0 1 13-6l16-1q17 0 26 9 9 8 9 23v52h-8v-14a41 41 0 0 1-5 5 35 35 0 0 1-7 6 40 40 0 0 1-9 3 40 40 0 0 1-11 1zm1-7a39 39 0 0 0 12-2 33 33 0 0 0 10-5 25 25 0 0 0 7-8 21 21 0 0 0 2-10V81l-12-2q-7-2-16-2-13 0-20 6-7 5-7 14l1 8a18 18 0 0 0 6 6 25 25 0 0 0 8 4 32 32 0 0 0 9 1z" class="cls-3" style="stroke-width:.257541"/><path id="path8" d="m460 469 254 133v272M460 469v272l254 133" class="cls-2" transform="translate(-144 -19)"/><path id="path9" d="M727 577 475 445l254-131 254 131-256 132Z" class="cls-3" transform="translate(-144 -19)"/><path id="polyline9" d="m600 583 254-132v271L600 855" style="fill:#6e8089;fill-rule:evenodd"/><path id="path10" d="m743 19 254 132v272M743 19v271l254 133" class="cls-3" transform="translate(-144 -19)"/><text xml:space="preserve" id="text10" x="1056" y="564" class="cls-5" style="font-style:italic;font-variant:normal;font-weight:400;font-stretch:normal;font-family:sans-serif;-inkscape-font-specification:&quot;sans-serif Italic&quot;;white-space:pre;inline-size:578.007;display:inline;stroke-width:.0199716" transform="matrix(.47 0 0 .47 -207 -27)"><tspan id="tspan4" x="1056" y="564"><tspan id="tspan3" style="font-style:normal;-inkscape-font-specification:sans-serif">Berlin</tspan></tspan></text><text xml:space="preserve" id="text10-3" x="1056" y="564" class="cls-5" style="font-style:italic;font-variant:normal;font-weight:400;font-stretch:normal;font-size:200px;font-family:sans-serif;-inkscape-font-specification:&quot;sans-serif Italic&quot;;white-space:pre;inline-size:578.007;display:inline;fill:#1d1d1b;stroke-width:.0199716" transform="matrix(.48 0 0 .48 85 870)"><tspan id="tspan6" x="1056" y="564"><tspan id="tspan5" style="font-style:normal;-inkscape-font-specification:sans-serif">2025</tspan></tspan></text></g><g id="Ebene_4" data-name="Ebene 4"><path id="path11" d="M839 235c4 0 4-5 0-5s-3 5 0 5Z" class="cls-6" transform="translate(-144 -19)"/><path id="path12" d="M306 439c22-13 99 13 99-38 0-9-7-9-7 0 0 7-5 18-42 24-18 3-38 0-49 5" class="cls-6" transform="translate(-144 -19)"/><path id="path13" d="M625 668c2-9 5-21 11-27-9-1-15 7-19 12 2-9 5-21 11-26-10-1-17 7-20 14 1-8 4-19 10-25-10-2-16 6-22 16 2-9 6-20 11-25-10-1-18 8-22 17 2-8 6-20 10-24-10-1-20 10-22 21" class="cls-6" transform="translate(-144 -19)"/><path id="path14" d="M555 1071c8-4 18-7 25-6-4-4-10-8-21-8 6-3 15-7 23-6a24 24 0 0 0-24-7c7-4 17-7 23-6-7-9-19-10-27-7 6-3 17-8 24-6-6-8-21-11-28-6 4-4 15-8 23-7-7-8-21-10-32-4" class="cls-6" transform="translate(-144 -19)"/><path id="path15" d="M256 1139c10-1 20 0 26 3-3-7-7-11-17-15 10-1 18-1 24 3-2-7-9-15-20-16 7-2 20-1 24 2-2-8-12-15-21-16 5-2 19-1 23 3-2-8-13-17-24-16 8-3 20-1 24 2-4-10-15-18-28-16" class="cls-6" transform="translate(-144 -19)"/><path id="path16" d="M337 347c-19-13-37-21-69-21-36 0-39 5-58 10a27 27 0 0 0-34 42c-4 18-6 30-6 47-1 61 16 54 16 84 0 10-9 32-9 49-1 40 26 85 26 110 0 17-6 35-11 52-14 41-8 105-41 146l1 23 11-1c0 13-4 104-11 136-3 11-13 25-4 37l25 29c19 24 51 48 82 49 18 1 27-66 15-66-11-1-23-1-33-6-7-3-7-13-2-18 50-50 79-73 86-181h8c1 29-4 56-11 83 18 9 36 20 50 33 29 28 41 69 50 107 1 11 11 18 21 19 18 3 33-8 49-14 24-12 47-15 68-25 12-6 0-62-12-64-7-2-15 2-21 4-14 6-22 20-37 24-5 2-12-2-11-8 7-39 10-82-7-119-15-31-38-61-102-91-5 4-14 15-19 18l-6-5c30-26 42-43 53-87a241 241 0 0 1-23-9l2-8c12 4 67 27 131 27 61-1 98-50 120-84 10-15-43-59-52-50-15 18-26 36-40 59-4 7-23 2-30-1l-100-50 1-8 14 7c1-24-2-49-14-70-14-27-41-43-66-57-10-6-23-13-21-27 46 1 52-2 52-15l-6-1c1-11-2-13-7-16a59 59 0 0 1-7 11v-3c0-7-12-7-16-3-4-6-19-5-20 2v5l-6-1c0-11 1-23 8-33a45 45 0 0 1 7-7c1 3 3 6 7 6s9 0 12-6c2 4 12 4 14-2v-9l1-1c5 4 8 7 9 15 10-8 11-13 10-23 12-9 15-20 16-37 0-3-2-4-5-5l-48-1" class="cls-1" transform="translate(-144 -19)"/><path id="path17" d="M275 385c3 0 8-1 10-4 17-26 21-16 24-7 2 8 11 8 8-3-6-27-25-23-49 14m-50-27c-5-6-12-12-20-15-12-3-16 6-7 9a64 64 0 0 1 20 14m160 27a54 54 0 0 1-13 5c3 3 7 7 8 11a15 15 0 0 0 5-16m-31 10a13 13 0 0 0 1 6c2 4 9 3 11-1a15 15 0 0 0 0-8l-12 3m-3 1-15 6c1 2 3 5 7 5 3 0 6 0 8-4v-7m23 52c0-5 0-10-5-13a71 71 0 0 1-7 11v1m-2 0v-6c0-7-14-6-14 0v5m-2 0v-6c0-7-16-6-16 0v4" style="fill:#fff" transform="translate(-144 -19)"/></g><g id="Ebene_6" data-name="Ebene 6"><path id="path18" d="m460 774 254 132v272M460 774v271l254 133" class="cls-2" transform="translate(-144 -19)"/></g></svg>