<svg xmlns="http://www.w3.org/2000/svg" viewBox="0 0 1678.4 976.4">
	<g id="pycon-logo">
		<path class="pycon-logo-fill"
			d="M1568.9 973.9l-101.8-181.2H1267l-98 181.2h-37.2l-80-181.2H751.4l-80.6 181.2h-38.3l36.5-82.1c-63.7 53-145.1 82.1-230.4 82.1h-17.5v-578L222.8 749v225h-35V749L35.6 478.1V974H2.5V2.5h82.6c110.1 0 213.9 21 292.2 59 67.2 32.7 109.6 74.7 123.1 121.7L602 2.5h40.1L628.9 26c30-15.4 63.4-23.5 97.3-23.5h48v35h-48c-60.2 0-115.9 30.2-149.1 80.8l-11.9 21.2C553.8 163.4 548 189 548 215.6c0 98.2 79.9 178.1 178.1 178.1h75c-39-30.8-62-78-62-127.7 0-89.7 73-162.7 162.7-162.7 49.7 0 96.9 23 127.7 62V2.5h34l191.8 341.8V2.5h35v404.1l56.9 101.3V2.5h17.5c82.9 0 161 30.6 219.7 86 59 55.7 91.5 129.9 91.5 208.9s-32.5 153.1-91.5 208.9c-21.6 20.4-45.9 37.5-72.4 51h163.9v35h-281.3l92.9 165.4h188.4v35h-168.7l82.2 146.2h86.6v35h-107.1zM456.1 938.5c77.5-4 150.3-34.7 205.3-86.7 27.5-25.9 49.3-55.9 64.9-88.9l4.9-10.9c14.6-34.7 22-71.5 22-109.3 0-78.9-32.6-153.2-91.8-209.1-55-52-127.8-82.7-205.3-86.7v591.6zm711.7-36l167.5-310.2h-167.5v310.2zm-35-13.5V592.3h-131.5L1132.8 889zm314.6-131.3L1365 611l-79.2 146.6h161.6zm-411.1 0L901.9 454.3l-135 303.4h269.4zm-831-49l198.3-353c-8.3 4.9-17.1 9.6-26.3 14-78.3 38.1-182.1 59-292.2 59H48l157.3 280zm499.1-281.1c23.3 25.8 42.2 54.7 56.2 85.9 15.9 35.4 25 72.9 27.1 111.4l87.2-196.2H726.1c-7.2 0-14.5-.4-21.7-1.1zm630.4 129.7L1064.6 76.2v352.5h-35v-62c-25.2 31.9-61.8 53.5-101.7 59.9l57.9 130.7h349zm47.4-.5c67.2-3.9 130.4-30.9 178.2-76 51.9-49.1 80.5-114.2 80.5-183.4S1612.3 163 1560.4 114c-47.8-45.1-110.9-72-178.2-76v518.8zM901.9 138.3c-70.4 0-127.7 57.3-127.7 127.7s57.3 127.7 127.7 127.7 127.7-57.3 127.7-127.7-57.3-127.7-127.7-127.7zM85.1 393.7c104.9 0 203.2-19.7 276.9-55.5 34.8-16.9 62-36.4 80.7-57.9 18.1-20.8 27.3-42.6 27.3-64.6s-9.2-43.8-27.3-64.6C424 129.4 396.8 110 362 93 288.3 57.2 190 37.5 85.1 37.5H35.6v356.2h49.5zm382.7-81c26.1 2 51.9 6.8 76.7 14.3-17.9-29-28.5-61.8-30.9-95.8l-45.8 81.5z" />
		<path class="pycon-logo-contour"
			d="M1364.7 5c82.3 0 159.7 30.3 218 85.3 58.5 55.3 90.7 128.8 90.7 207s-32.2 151.8-90.7 207c-24.2 22.8-51.7 41.4-81.5 55.3h172.2v30h-283.1L1486 760h187.3v30h-170.5l85 151.2h85.5v30h-103.1L1468.4 790h-203.1l-97.9 181.2h-34.1l-80-181.2H749.8l-80.6 181.2h-32.8l39.5-88.7c-64.5 57.3-148.3 88.7-237.2 88.7h-15v-585L220.3 748.3v223.1h-30V748.3L33.1 468.5v502.9H5V5h80.1c109.7 0 213.1 20.9 291.1 58.8 69.3 33.7 112.1 77.8 123.3 126.1L603.4 5h34.4l-15.4 27.3C653.1 14.9 688.5 5 726.1 5h45.5v30h-45.5c-63.2 0-118.9 32.7-151.2 82l-12 21.3a180.24 180.24 0 00-17.4 77.3c0 99.6 81 180.6 180.6 180.6h82.5c-40.5-29.1-67-76.6-67-130.2 0-88.3 71.9-160.2 160.2-160.2 53.6 0 101.1 26.4 130.2 67V5h30l195.8 348.9V5h30v402.3l61.9 110.2V5h15M33.1 396.2h52c105.3 0 204-19.8 278-55.8 35.1-17.1 62.5-36.8 81.5-58.5 18.5-21.3 27.9-43.6 27.9-66.3s-9.4-45-27.9-66.3c-18.9-21.8-46.3-41.5-81.5-58.5-74-36-172.7-55.8-278-55.8h-52v361.2m1346.6 163.2c69-3.4 133.2-30.4 182.4-76.8 52.4-49.5 81.3-115.3 81.3-185.2s-28.9-135.7-81.3-185.2c-49.1-46.4-113.4-73.4-182.4-76.8v524m-347.6-133.2v-67c-25 34.8-63.5 59.2-107.8 65.4l59.9 135.2h354.9l-277-493.1v359.5h-30m-130.2-30c71.8 0 130.2-58.4 130.2-130.2 0-71.8-58.4-130.2-130.2-130.2S771.7 194.2 771.7 266c0 71.8 58.4 130.2 130.2 130.2m-351.6-64.8c-20.8-31.5-33.4-68.8-34.7-108.9l-51.9 92.4c29.8 2 58.9 7.6 86.6 16.5m-96.7 609.7c79.2-3.5 153.2-34.2 209.5-87.5C691 827.3 713 797 728.6 764l4.9-11c14.6-34.6 22.3-71.9 22.3-110.3 0-79.6-32.9-154.5-92.6-210.9-56.4-53.3-130.3-84-209.5-87.5v596.8M205.3 713.8l205.1-365.2c-10.6 6.6-22 12.8-34.2 18.8-78 37.9-181.4 58.8-291.1 58.8H43.7l161.6 287.6m580.3-78.1l93.2-209.5H726.1c-9.6 0-19-.7-28.2-1.9 25.2 26.8 45.5 57.1 60.4 90.2 17.2 38.5 26.4 79.2 27.3 121.2m-22.5 124.5h277.1l-138.3-312-138.8 312m402.2 152.1l174.2-322.6h-174.2v322.6m-30-11.5v-311H997.5l137.8 311m146.3-140.6h170L1365 605.9l-83.4 154.3M1364.7 0h-20v498.3l-51.9-92.4V0h-40v334.7L1066.4 2.6 1065 0h-37.9v158.3c-13.6-15.8-30.2-29-48.6-38.7-23.5-12.3-50-18.9-76.6-18.9-91.1 0-165.2 74.1-165.2 165.2 0 26.6 6.5 53.1 18.9 76.6 9.7 18.4 22.9 35 38.7 48.6h-68.1c-96.8 0-175.6-78.8-175.6-175.6 0-26.2 5.7-51.4 16.8-75l11.8-21C611.9 69.7 666.8 40 726.1 40h50.5V0h-50.5c-31.5 0-62.7 7-91.1 20.2l7.2-12.8 4.2-7.4h-45.8l-1.4 2.6-98 174.5c-7-20.7-19.7-40.6-37.8-59.1-21.4-21.9-49.9-41.6-84.9-58.6C299.7 21.1 195.5 0 85.1 0H0v976.4h38.1V487.6l147.2 262v226.8h40V749.6l193.3-344.1v570.9h20c44.8 0 88.4-7.8 129.5-23.2 34.3-12.8 65.9-30.6 94.4-52.9l-30.7 69.1-3.1 7h43.7l1.3-3L753 795.2h297.2l78.6 178.3 1.3 3h40.4l1.4-2.6 96.5-178.6h197.2L1566 973.9l1.4 2.6h111v-40h-87.6l-79.3-141.2h166.9v-40H1489l-90.1-160.4h279.5v-40h-156.3c23.3-12.8 44.7-28.5 64-46.7 59.5-56.2 92.3-131 92.3-210.7s-32.8-154.5-92.3-210.7C1526.9 30.8 1448.3 0 1364.7 0zM38.1 40h47c104.5 0 202.5 19.6 275.8 55.3 34.5 16.8 61.4 36.1 79.9 57.3 17.7 20.4 26.7 41.6 26.7 63s-9 42.6-26.7 63c-18.5 21.2-45.4 40.5-79.9 57.3-73.3 35.6-171.3 55.3-275.8 55.3h-47V40zm1346.6 514.1V40.7c31.9 2.1 62.7 9.4 91.7 21.6 30.6 12.9 58.3 30.9 82.3 53.5 51.4 48.6 79.8 113.1 79.8 181.6s-28.3 133-79.8 181.6c-24 22.7-51.7 40.7-82.3 53.5-29 12.2-59.8 19.5-91.7 21.6zm-357.6-122.9h40V85.8l263.5 469H987.4l-56-126.3c20.1-3.6 39.1-10.9 56.6-21.6 14.8-9.1 27.9-20.2 39.1-33.2v57.5zm-125.2-40c-69 0-125.2-56.2-125.2-125.2s56.2-125.2 125.2-125.2S1027.1 197 1027.1 266s-56.2 125.2-125.2 125.2zm-430-80.7l39.9-71.1c3.3 29.4 12.5 57.8 27.3 83.4-21.8-6.1-44.3-10.3-67.2-12.3zm-13.3 625.3V349.6c37 2.2 72.8 10.4 106.4 24.4 35.2 14.7 67.1 35.4 94.7 61.4 58.7 55.4 91 129 91 207.3 0 37.4-7.3 73.9-21.8 108.3l-4.8 10.9c-15.5 32.7-37.1 62.4-64.3 88.1-27.6 26.1-59.5 46.7-94.7 61.4-33.7 14.1-69.5 22.3-106.5 24.4zM52.3 431.2h32.8c110.5 0 214.6-21.1 293.3-59.3 6.4-3.1 12.6-6.3 18.6-9.7L205.3 703.6l-153-272.4zm737.2 183.5c-3.1-35.3-12-69.6-26.6-102.3-13.3-29.6-30.9-57.1-52.5-81.9 5.3.4 10.5.6 15.7.6h145l-81.6 183.6zm-18.7 140.5l131.1-294.7 130.6 294.7H770.8zm399.5-160.4h160.9l-160.9 297.8V594.8zm-165.2 0h125.2v282.4l-125.2-282.4zM1290 755.2l75.1-139 78.1 139H1290z" />
	</g>
</svg>
